# xmcd
#
# Track frame offsets: 
#        182
#        10952
#        22972
#        34875
#        44992
#        55235
#        66607
#        76420
#        88415
#        99825
#        110645
#        122735
#        134577
#        143950
#        154710
#        165795
#        176902
#        188592
#        199450
#        212535
#        224095
#        234450
#
# Disc length: 3321 seconds
#
# Revision: 9
# Processed by: cddbd v1.5.2PL0 Copyright (c) Steve Scherf et al.
# Submitted via: ExactAudioCopy v1.3
#
DISCID=4b0cf716
DTITLE=Various Artist - Rhythm And Blues Vol. 3 1959
DYEAR=1990
DGENRE=R&B
TTITLE0=Lloyd Price - Stagger Lee
TTITLE1=Jackie Wilson - Lonely Teardrops
TTITLE2=Coasters - Poison Ivy
TTITLE3=Dee Clark - Hey Little Girl
TTITLE4=Fiestas - So Fine
TTITLE5=Dinah Washington - What A Difference A Day Makes
TTITLE6=Drifters - There Goes My Baby
TTITLE7=Marv Johnson - You Got What It Takes
TTITLE8=James Brown - Try Me
TTITLE9=Phil Phillips - Sea Of Love
TTITLE10=Platters - Smoke Gets In Your Eyes
TTITLE11=Hank Ballard And The Midnighters - The Twist
TTITLE12=Jackie Wilson - That's Why (I Love You So)
TTITLE13=Coasters - Charlie Brown
TTITLE14=Falcons - You're So Fine
TTITLE15=Brook Benton - It's Just A Matter Of Time
TTITLE16=LaVern Baker - I Cried A Tear
TTITLE17=Wilbert Harrison - Kansas City
TTITLE18=Eugene Church - Pretty Girls Everywhere
TTITLE19=Della Reese - Don't You Know
TTITLE20=Fats Domino - I Want To Walk You Home
TTITLE21=Flamingos - I Only Have Eyes For You
EXTD=Time-Life Music RHB-03 OPCD-2613
EXTT0=
EXTT1=
EXTT2=
EXTT3=
EXTT4=
EXTT5=
EXTT6=
EXTT7=
EXTT8=
EXTT9=
EXTT10=
EXTT11=
EXTT12=
EXTT13=
EXTT14=
EXTT15=
EXTT16=
EXTT17=
EXTT18=
EXTT19=
EXTT20=
EXTT21=
PLAYORDER=
